<svg width="46" height="46" viewBox="0 0 46 46" fill="none" xmlns="http://www.w3.org/2000/svg">
<path d="M23.009 12.6679C17.2949 12.6679 12.6859 17.2769 12.6859 22.991C12.6859 28.7051 17.2949 33.314 23.009 33.314C28.723 33.314 33.332 28.7051 33.332 22.991C33.332 17.2769 28.723 12.6679 23.009 12.6679ZM23.009 29.7023C19.3164 29.7023 16.2977 26.6926 16.2977 22.991C16.2977 19.2894 19.3074 16.2797 23.009 16.2797C26.7105 16.2797 29.7203 19.2894 29.7203 22.991C29.7203 26.6926 26.7016 29.7023 23.009 29.7023ZM36.1621 12.2457C36.1621 13.5844 35.084 14.6535 33.7543 14.6535C32.4156 14.6535 31.3465 13.5754 31.3465 12.2457C31.3465 10.916 32.4246 9.83787 33.7543 9.83787C35.084 9.83787 36.1621 10.916 36.1621 12.2457ZM42.9992 14.6894C42.8465 11.464 42.1098 8.60701 39.7469 6.2531C37.393 3.89919 34.5359 3.16248 31.3105 3.00076C27.9863 2.81208 18.0227 2.81208 14.6984 3.00076C11.482 3.15349 8.625 3.89021 6.26211 6.24412C3.89922 8.59802 3.17149 11.4551 3.00977 14.6804C2.8211 18.0047 2.8211 27.9683 3.00977 31.2926C3.1625 34.5179 3.89922 37.375 6.26211 39.7289C8.625 42.0828 11.473 42.8195 14.6984 42.9812C18.0227 43.1699 27.9863 43.1699 31.3105 42.9812C34.5359 42.8285 37.393 42.0918 39.7469 39.7289C42.1008 37.375 42.8375 34.5179 42.9992 31.2926C43.1879 27.9683 43.1879 18.0136 42.9992 14.6894ZM38.7047 34.8593C38.0039 36.6203 36.6473 37.9769 34.8773 38.6867C32.227 39.7379 25.9379 39.4953 23.009 39.4953C20.0801 39.4953 13.782 39.7289 11.1406 38.6867C9.37969 37.9859 8.02305 36.6293 7.31328 34.8593C6.26211 32.209 6.50469 25.9199 6.50469 22.991C6.50469 20.0621 6.2711 13.764 7.31328 11.1226C8.01406 9.36169 9.3707 8.00505 11.1406 7.29529C13.791 6.24412 20.0801 6.48669 23.009 6.48669C25.9379 6.48669 32.2359 6.2531 34.8773 7.29529C36.6383 7.99607 37.9949 9.35271 38.7047 11.1226C39.7559 13.773 39.5133 20.0621 39.5133 22.991C39.5133 25.9199 39.7559 32.2179 38.7047 34.8593Z" fill="black"/>
</svg>
